<mxfile host="app.diagrams.net" modified="2022-04-23T10:21:06.869Z" agent="5.0 (Windows NT 10.0; Win64; x64) AppleWebKit/537.36 (KHTML, like Gecko) Chrome/100.0.4896.75 Safari/537.36 Edg/100.0.1185.36" etag="gJM_Py044j6_JjiPWEMi" version="17.4.6" type="github">
  <diagram id="u2roTkG2nx634AVpUnOO" name="Page-1">
    <mxGraphModel dx="944" dy="526" grid="1" gridSize="10" guides="1" tooltips="1" connect="1" arrows="1" fold="1" page="1" pageScale="1" pageWidth="3300" pageHeight="4681" math="0" shadow="0">
      <root>
        <mxCell id="0" />
        <mxCell id="1" parent="0" />
        <mxCell id="0NjSQQRcXSc5XLLKy36X-7" value="" style="edgeStyle=orthogonalEdgeStyle;rounded=0;orthogonalLoop=1;jettySize=auto;html=1;entryX=0.5;entryY=0;entryDx=0;entryDy=0;" edge="1" parent="1" source="0NjSQQRcXSc5XLLKy36X-3" target="0NjSQQRcXSc5XLLKy36X-9">
          <mxGeometry relative="1" as="geometry">
            <mxPoint x="230" y="290" as="targetPoint" />
            <Array as="points">
              <mxPoint x="230" y="200" />
            </Array>
          </mxGeometry>
        </mxCell>
        <mxCell id="0NjSQQRcXSc5XLLKy36X-3" value="Full Dataset" style="text;html=1;strokeColor=none;fillColor=none;align=center;verticalAlign=middle;whiteSpace=wrap;rounded=0;" vertex="1" parent="1">
          <mxGeometry x="395" y="180" width="60" height="40" as="geometry" />
        </mxCell>
        <mxCell id="0NjSQQRcXSc5XLLKy36X-24" style="edgeStyle=orthogonalEdgeStyle;rounded=0;orthogonalLoop=1;jettySize=auto;html=1;startArrow=none;startFill=0;endArrow=classic;endFill=1;" edge="1" parent="1" source="0NjSQQRcXSc5XLLKy36X-4" target="0NjSQQRcXSc5XLLKy36X-15">
          <mxGeometry relative="1" as="geometry" />
        </mxCell>
        <mxCell id="0NjSQQRcXSc5XLLKy36X-4" value="" style="sketch=0;shadow=0;dashed=0;html=1;strokeColor=none;fillColor=#505050;labelPosition=center;verticalLabelPosition=bottom;verticalAlign=top;outlineConnect=0;align=center;shape=mxgraph.office.databases.database_mini_2;" vertex="1" parent="1">
          <mxGeometry x="200" y="284" width="60" height="90" as="geometry" />
        </mxCell>
        <mxCell id="0NjSQQRcXSc5XLLKy36X-5" value="" style="sketch=0;pointerEvents=1;shadow=0;dashed=0;html=1;strokeColor=none;fillColor=#505050;labelPosition=center;verticalLabelPosition=bottom;verticalAlign=top;outlineConnect=0;align=center;shape=mxgraph.office.users.user;" vertex="1" parent="1">
          <mxGeometry x="330" y="70" width="40" height="40" as="geometry" />
        </mxCell>
        <mxCell id="0NjSQQRcXSc5XLLKy36X-19" style="edgeStyle=orthogonalEdgeStyle;rounded=0;orthogonalLoop=1;jettySize=auto;html=1;" edge="1" parent="1" source="0NjSQQRcXSc5XLLKy36X-8" target="0NjSQQRcXSc5XLLKy36X-5">
          <mxGeometry relative="1" as="geometry">
            <Array as="points">
              <mxPoint x="350" y="125" />
            </Array>
          </mxGeometry>
        </mxCell>
        <mxCell id="0NjSQQRcXSc5XLLKy36X-20" style="edgeStyle=orthogonalEdgeStyle;rounded=0;orthogonalLoop=1;jettySize=auto;html=1;" edge="1" parent="1" source="0NjSQQRcXSc5XLLKy36X-8" target="0NjSQQRcXSc5XLLKy36X-16">
          <mxGeometry relative="1" as="geometry">
            <Array as="points">
              <mxPoint x="500" y="125" />
            </Array>
          </mxGeometry>
        </mxCell>
        <mxCell id="0NjSQQRcXSc5XLLKy36X-21" style="edgeStyle=orthogonalEdgeStyle;rounded=0;orthogonalLoop=1;jettySize=auto;html=1;" edge="1" parent="1" source="0NjSQQRcXSc5XLLKy36X-8" target="0NjSQQRcXSc5XLLKy36X-14">
          <mxGeometry relative="1" as="geometry" />
        </mxCell>
        <mxCell id="0NjSQQRcXSc5XLLKy36X-8" value="" style="sketch=0;shadow=0;dashed=0;html=1;strokeColor=none;fillColor=#505050;labelPosition=center;verticalLabelPosition=bottom;verticalAlign=top;outlineConnect=0;align=center;shape=mxgraph.office.databases.database_mini_3;" vertex="1" parent="1">
          <mxGeometry x="395" y="70" width="62" height="110" as="geometry" />
        </mxCell>
        <mxCell id="0NjSQQRcXSc5XLLKy36X-9" value="Pretraining Dataset" style="text;html=1;strokeColor=none;fillColor=none;align=center;verticalAlign=middle;whiteSpace=wrap;rounded=0;" vertex="1" parent="1">
          <mxGeometry x="200" y="240" width="60" height="30" as="geometry" />
        </mxCell>
        <mxCell id="0NjSQQRcXSc5XLLKy36X-27" style="edgeStyle=orthogonalEdgeStyle;rounded=0;orthogonalLoop=1;jettySize=auto;html=1;startArrow=none;startFill=0;endArrow=classic;endFill=1;" edge="1" parent="1" source="0NjSQQRcXSc5XLLKy36X-10" target="0NjSQQRcXSc5XLLKy36X-25">
          <mxGeometry relative="1" as="geometry">
            <Array as="points">
              <mxPoint x="610" y="380" />
              <mxPoint x="549" y="380" />
            </Array>
          </mxGeometry>
        </mxCell>
        <mxCell id="0NjSQQRcXSc5XLLKy36X-28" style="edgeStyle=orthogonalEdgeStyle;rounded=0;orthogonalLoop=1;jettySize=auto;html=1;startArrow=none;startFill=0;endArrow=classic;endFill=1;" edge="1" parent="1" source="0NjSQQRcXSc5XLLKy36X-10" target="0NjSQQRcXSc5XLLKy36X-26">
          <mxGeometry relative="1" as="geometry">
            <Array as="points">
              <mxPoint x="610" y="380" />
              <mxPoint x="670" y="380" />
            </Array>
          </mxGeometry>
        </mxCell>
        <mxCell id="0NjSQQRcXSc5XLLKy36X-10" value="" style="sketch=0;shadow=0;dashed=0;html=1;strokeColor=none;fillColor=#505050;labelPosition=center;verticalLabelPosition=bottom;verticalAlign=top;outlineConnect=0;align=center;shape=mxgraph.office.databases.database_mini_1;" vertex="1" parent="1">
          <mxGeometry x="582.5" y="324" width="55" height="50" as="geometry" />
        </mxCell>
        <mxCell id="0NjSQQRcXSc5XLLKy36X-14" value="" style="sketch=0;pointerEvents=1;shadow=0;dashed=0;html=1;strokeColor=none;fillColor=#505050;labelPosition=center;verticalLabelPosition=bottom;verticalAlign=top;outlineConnect=0;align=center;shape=mxgraph.office.users.user;" vertex="1" parent="1">
          <mxGeometry x="406" y="10" width="40" height="40" as="geometry" />
        </mxCell>
        <mxCell id="0NjSQQRcXSc5XLLKy36X-15" value="" style="sketch=0;pointerEvents=1;shadow=0;dashed=0;html=1;strokeColor=none;fillColor=#505050;labelPosition=center;verticalLabelPosition=bottom;verticalAlign=top;outlineConnect=0;align=center;shape=mxgraph.office.users.user;" vertex="1" parent="1">
          <mxGeometry x="210" y="400" width="40" height="40" as="geometry" />
        </mxCell>
        <mxCell id="0NjSQQRcXSc5XLLKy36X-16" value="" style="sketch=0;pointerEvents=1;shadow=0;dashed=0;html=1;strokeColor=none;fillColor=#505050;labelPosition=center;verticalLabelPosition=bottom;verticalAlign=top;outlineConnect=0;align=center;shape=mxgraph.office.users.user;" vertex="1" parent="1">
          <mxGeometry x="480" y="70" width="40" height="40" as="geometry" />
        </mxCell>
        <mxCell id="0NjSQQRcXSc5XLLKy36X-22" value="1/3 of the Total users&lt;br&gt;each user having lot of samples" style="text;html=1;strokeColor=none;fillColor=none;align=center;verticalAlign=middle;whiteSpace=wrap;rounded=0;" vertex="1" parent="1">
          <mxGeometry x="170" y="459" width="120" height="30" as="geometry" />
        </mxCell>
        <mxCell id="0NjSQQRcXSc5XLLKy36X-11" value="Classification Dataset" style="text;html=1;strokeColor=none;fillColor=none;align=center;verticalAlign=middle;whiteSpace=wrap;rounded=0;" vertex="1" parent="1">
          <mxGeometry x="580" y="284" width="60" height="30" as="geometry" />
        </mxCell>
        <mxCell id="0NjSQQRcXSc5XLLKy36X-23" value="" style="edgeStyle=orthogonalEdgeStyle;rounded=0;orthogonalLoop=1;jettySize=auto;html=1;endArrow=classic;startArrow=none;startFill=0;endFill=1;" edge="1" parent="1" source="0NjSQQRcXSc5XLLKy36X-3" target="0NjSQQRcXSc5XLLKy36X-11">
          <mxGeometry relative="1" as="geometry">
            <mxPoint x="455" y="200.03030303030312" as="sourcePoint" />
            <mxPoint x="607.4848484848485" y="304" as="targetPoint" />
          </mxGeometry>
        </mxCell>
        <mxCell id="0NjSQQRcXSc5XLLKy36X-25" value="" style="sketch=0;pointerEvents=1;shadow=0;dashed=0;html=1;strokeColor=none;fillColor=#505050;labelPosition=center;verticalLabelPosition=bottom;verticalAlign=top;outlineConnect=0;align=center;shape=mxgraph.office.users.user;" vertex="1" parent="1">
          <mxGeometry x="529" y="400" width="40" height="40" as="geometry" />
        </mxCell>
        <mxCell id="0NjSQQRcXSc5XLLKy36X-26" value="" style="sketch=0;pointerEvents=1;shadow=0;dashed=0;html=1;strokeColor=none;fillColor=#505050;labelPosition=center;verticalLabelPosition=bottom;verticalAlign=top;outlineConnect=0;align=center;shape=mxgraph.office.users.user;" vertex="1" parent="1">
          <mxGeometry x="650" y="400" width="40" height="40" as="geometry" />
        </mxCell>
        <mxCell id="0NjSQQRcXSc5XLLKy36X-29" value="2/3 of the Total users&lt;br&gt;each user having small amount of samples" style="text;html=1;strokeColor=none;fillColor=none;align=center;verticalAlign=middle;whiteSpace=wrap;rounded=0;" vertex="1" parent="1">
          <mxGeometry x="529" y="459" width="170" height="30" as="geometry" />
        </mxCell>
        <mxCell id="0NjSQQRcXSc5XLLKy36X-30" value="" style="sketch=0;shadow=0;dashed=0;html=1;strokeColor=none;fillColor=#505050;labelPosition=center;verticalLabelPosition=bottom;verticalAlign=top;outlineConnect=0;align=center;shape=mxgraph.office.databases.database_availability_group;" vertex="1" parent="1">
          <mxGeometry x="250" y="390.5" width="59" height="59" as="geometry" />
        </mxCell>
        <mxCell id="0NjSQQRcXSc5XLLKy36X-31" value="" style="sketch=0;shadow=0;dashed=0;html=1;strokeColor=none;fillColor=#505050;labelPosition=center;verticalLabelPosition=bottom;verticalAlign=top;outlineConnect=0;align=center;shape=mxgraph.office.databases.database;" vertex="1" parent="1">
          <mxGeometry x="569" y="402" width="28" height="38" as="geometry" />
        </mxCell>
        <mxCell id="0NjSQQRcXSc5XLLKy36X-32" value="" style="sketch=0;shadow=0;dashed=0;html=1;strokeColor=none;fillColor=#505050;labelPosition=center;verticalLabelPosition=bottom;verticalAlign=top;outlineConnect=0;align=center;shape=mxgraph.office.databases.database;" vertex="1" parent="1">
          <mxGeometry x="690" y="402" width="28" height="38" as="geometry" />
        </mxCell>
        <mxCell id="0NjSQQRcXSc5XLLKy36X-33" value="Similar to data collected in an experimental setup" style="text;html=1;strokeColor=none;fillColor=none;align=left;verticalAlign=middle;whiteSpace=wrap;rounded=0;" vertex="1" parent="1">
          <mxGeometry x="270" y="314" width="110" height="30" as="geometry" />
        </mxCell>
        <mxCell id="0NjSQQRcXSc5XLLKy36X-34" value="Similar to data collected in a real world scenario" style="text;html=1;strokeColor=none;fillColor=none;align=left;verticalAlign=middle;whiteSpace=wrap;rounded=0;" vertex="1" parent="1">
          <mxGeometry x="649" y="314" width="110" height="30" as="geometry" />
        </mxCell>
      </root>
    </mxGraphModel>
  </diagram>
</mxfile>
